디비 er 다이어그램 초안입니다.

<mxfile host="app.diagrams.net" modified="2020-11-16T02:51:08.541Z" agent="5.0 (Macintosh; Intel Mac OS X 10_15_7) AppleWebKit/537.36 (KHTML, like Gecko) Chrome/86.0.4240.183 Safari/537.36" etag="ntYrdxOTIhXAMlmUXYsg" version="13.9.9" type="github">
  <diagram id="V5RjVeQssuSW6jGwzBRD" name="Page-1">
    <mxGraphModel dx="3524" dy="1671" grid="1" gridSize="10" guides="1" tooltips="1" connect="1" arrows="1" fold="1" page="1" pageScale="1" pageWidth="827" pageHeight="1169" math="0" shadow="0">
      <root>
        <mxCell id="0" />
        <mxCell id="1" parent="0" />
        <mxCell id="T0C-1N6B9OsZeGpATFII-1" value="가게" style="rounded=0;whiteSpace=wrap;html=1;" vertex="1" parent="1">
          <mxGeometry x="-220" y="740" width="120" height="40" as="geometry" />
        </mxCell>
        <mxCell id="T0C-1N6B9OsZeGpATFII-2" value="" style="edgeStyle=orthogonalEdgeStyle;rounded=0;orthogonalLoop=1;jettySize=auto;html=1;endArrow=none;endFill=0;" edge="1" parent="1" source="T0C-1N6B9OsZeGpATFII-3" target="T0C-1N6B9OsZeGpATFII-16">
          <mxGeometry relative="1" as="geometry" />
        </mxCell>
        <mxCell id="T0C-1N6B9OsZeGpATFII-3" value="라이더" style="rounded=0;whiteSpace=wrap;html=1;" vertex="1" parent="1">
          <mxGeometry x="-380" y="520" width="120" height="40" as="geometry" />
        </mxCell>
        <mxCell id="T0C-1N6B9OsZeGpATFII-4" value="맛집랭킹" style="rounded=0;whiteSpace=wrap;html=1;" vertex="1" parent="1">
          <mxGeometry x="294" y="320" width="120" height="40" as="geometry" />
        </mxCell>
        <mxCell id="T0C-1N6B9OsZeGpATFII-5" value="맛집공유게시판" style="rounded=0;whiteSpace=wrap;html=1;" vertex="1" parent="1">
          <mxGeometry x="120" y="740" width="120" height="40" as="geometry" />
        </mxCell>
        <mxCell id="T0C-1N6B9OsZeGpATFII-6" value="손님" style="rounded=0;whiteSpace=wrap;html=1;" vertex="1" parent="1">
          <mxGeometry x="-60" y="520" width="120" height="40" as="geometry" />
        </mxCell>
        <mxCell id="T0C-1N6B9OsZeGpATFII-7" value="배정" style="rhombus;whiteSpace=wrap;html=1;" vertex="1" parent="1">
          <mxGeometry x="-380" y="640" width="120" height="40" as="geometry" />
        </mxCell>
        <mxCell id="T0C-1N6B9OsZeGpATFII-8" value="" style="edgeStyle=orthogonalEdgeStyle;rounded=0;orthogonalLoop=1;jettySize=auto;html=1;endArrow=none;endFill=0;" edge="1" parent="1" source="T0C-1N6B9OsZeGpATFII-9" target="T0C-1N6B9OsZeGpATFII-10">
          <mxGeometry relative="1" as="geometry" />
        </mxCell>
        <mxCell id="T0C-1N6B9OsZeGpATFII-9" value="관리자" style="rounded=0;whiteSpace=wrap;html=1;" vertex="1" parent="1">
          <mxGeometry x="294" y="520" width="120" height="40" as="geometry" />
        </mxCell>
        <mxCell id="T0C-1N6B9OsZeGpATFII-10" value="문의" style="rhombus;whiteSpace=wrap;html=1;" vertex="1" parent="1">
          <mxGeometry x="120" y="520" width="120" height="40" as="geometry" />
        </mxCell>
        <mxCell id="T0C-1N6B9OsZeGpATFII-11" value="주문" style="rhombus;whiteSpace=wrap;html=1;" vertex="1" parent="1">
          <mxGeometry x="-220" y="640" width="120" height="40" as="geometry" />
        </mxCell>
        <mxCell id="T0C-1N6B9OsZeGpATFII-12" value="" style="endArrow=none;html=1;exitX=1;exitY=0.5;exitDx=0;exitDy=0;entryX=0;entryY=0.5;entryDx=0;entryDy=0;" edge="1" parent="1" source="T0C-1N6B9OsZeGpATFII-6" target="T0C-1N6B9OsZeGpATFII-10">
          <mxGeometry width="50" height="50" relative="1" as="geometry">
            <mxPoint x="160" y="720" as="sourcePoint" />
            <mxPoint x="100" y="600" as="targetPoint" />
          </mxGeometry>
        </mxCell>
        <mxCell id="T0C-1N6B9OsZeGpATFII-13" value="" style="endArrow=none;html=1;entryX=0;entryY=1;entryDx=0;entryDy=0;exitX=0.5;exitY=0;exitDx=0;exitDy=0;" edge="1" parent="1" source="T0C-1N6B9OsZeGpATFII-11" target="T0C-1N6B9OsZeGpATFII-6">
          <mxGeometry width="50" height="50" relative="1" as="geometry">
            <mxPoint x="-60" y="630" as="sourcePoint" />
            <mxPoint x="210" y="670" as="targetPoint" />
          </mxGeometry>
        </mxCell>
        <mxCell id="T0C-1N6B9OsZeGpATFII-14" value="" style="endArrow=none;html=1;entryX=0.5;entryY=1;entryDx=0;entryDy=0;exitX=0.5;exitY=0;exitDx=0;exitDy=0;" edge="1" parent="1" source="T0C-1N6B9OsZeGpATFII-1" target="T0C-1N6B9OsZeGpATFII-11">
          <mxGeometry width="50" height="50" relative="1" as="geometry">
            <mxPoint x="-60" y="750" as="sourcePoint" />
            <mxPoint x="210" y="670" as="targetPoint" />
          </mxGeometry>
        </mxCell>
        <mxCell id="T0C-1N6B9OsZeGpATFII-15" value="" style="edgeStyle=orthogonalEdgeStyle;rounded=0;orthogonalLoop=1;jettySize=auto;html=1;endArrow=none;endFill=0;" edge="1" parent="1" source="T0C-1N6B9OsZeGpATFII-16" target="T0C-1N6B9OsZeGpATFII-6">
          <mxGeometry relative="1" as="geometry" />
        </mxCell>
        <mxCell id="T0C-1N6B9OsZeGpATFII-16" value="배달" style="rhombus;whiteSpace=wrap;html=1;" vertex="1" parent="1">
          <mxGeometry x="-220" y="520" width="120" height="40" as="geometry" />
        </mxCell>
        <mxCell id="T0C-1N6B9OsZeGpATFII-17" value="게시" style="rhombus;whiteSpace=wrap;html=1;" vertex="1" parent="1">
          <mxGeometry x="120" y="640" width="120" height="40" as="geometry" />
        </mxCell>
        <mxCell id="T0C-1N6B9OsZeGpATFII-18" value="" style="endArrow=none;html=1;entryX=0.5;entryY=0;entryDx=0;entryDy=0;exitX=1;exitY=1;exitDx=0;exitDy=0;" edge="1" parent="1" source="T0C-1N6B9OsZeGpATFII-6" target="T0C-1N6B9OsZeGpATFII-17">
          <mxGeometry width="50" height="50" relative="1" as="geometry">
            <mxPoint x="160" y="600" as="sourcePoint" />
            <mxPoint x="210" y="550" as="targetPoint" />
          </mxGeometry>
        </mxCell>
        <mxCell id="T0C-1N6B9OsZeGpATFII-19" value="관리" style="rhombus;whiteSpace=wrap;html=1;" vertex="1" parent="1">
          <mxGeometry x="294" y="420" width="120" height="40" as="geometry" />
        </mxCell>
        <mxCell id="T0C-1N6B9OsZeGpATFII-20" value="" style="endArrow=none;html=1;exitX=0.5;exitY=0;exitDx=0;exitDy=0;" edge="1" parent="1" source="T0C-1N6B9OsZeGpATFII-9" target="T0C-1N6B9OsZeGpATFII-19">
          <mxGeometry width="50" height="50" relative="1" as="geometry">
            <mxPoint x="160" y="600" as="sourcePoint" />
            <mxPoint x="210" y="550" as="targetPoint" />
          </mxGeometry>
        </mxCell>
        <mxCell id="T0C-1N6B9OsZeGpATFII-21" value="" style="endArrow=none;html=1;exitX=0.5;exitY=1;exitDx=0;exitDy=0;entryX=0.5;entryY=0;entryDx=0;entryDy=0;" edge="1" parent="1" source="T0C-1N6B9OsZeGpATFII-4" target="T0C-1N6B9OsZeGpATFII-19">
          <mxGeometry width="50" height="50" relative="1" as="geometry">
            <mxPoint x="160" y="600" as="sourcePoint" />
            <mxPoint x="210" y="550" as="targetPoint" />
          </mxGeometry>
        </mxCell>
        <mxCell id="T0C-1N6B9OsZeGpATFII-22" value="" style="endArrow=none;html=1;entryX=0.5;entryY=1;entryDx=0;entryDy=0;exitX=0;exitY=0.5;exitDx=0;exitDy=0;" edge="1" parent="1" source="T0C-1N6B9OsZeGpATFII-1" target="T0C-1N6B9OsZeGpATFII-7">
          <mxGeometry width="50" height="50" relative="1" as="geometry">
            <mxPoint x="140" y="640" as="sourcePoint" />
            <mxPoint x="190" y="590" as="targetPoint" />
            <Array as="points">
              <mxPoint x="-320" y="760" />
            </Array>
          </mxGeometry>
        </mxCell>
        <mxCell id="T0C-1N6B9OsZeGpATFII-23" value="" style="endArrow=none;html=1;entryX=0.5;entryY=1;entryDx=0;entryDy=0;" edge="1" parent="1" source="T0C-1N6B9OsZeGpATFII-7" target="T0C-1N6B9OsZeGpATFII-3">
          <mxGeometry width="50" height="50" relative="1" as="geometry">
            <mxPoint x="-160" y="630" as="sourcePoint" />
            <mxPoint x="190" y="590" as="targetPoint" />
          </mxGeometry>
        </mxCell>
        <mxCell id="T0C-1N6B9OsZeGpATFII-24" value="이름" style="ellipse;whiteSpace=wrap;html=1;" vertex="1" parent="1">
          <mxGeometry x="-260" y="840" width="100" height="50" as="geometry" />
        </mxCell>
        <mxCell id="T0C-1N6B9OsZeGpATFII-25" value="리뷰" style="ellipse;whiteSpace=wrap;html=1;" vertex="1" parent="1">
          <mxGeometry x="250" y="840" width="100" height="50" as="geometry" />
        </mxCell>
        <mxCell id="T0C-1N6B9OsZeGpATFII-26" value="장소" style="ellipse;whiteSpace=wrap;html=1;" vertex="1" parent="1">
          <mxGeometry x="-150" y="840" width="100" height="50" as="geometry" />
        </mxCell>
        <mxCell id="T0C-1N6B9OsZeGpATFII-27" value="메뉴" style="ellipse;whiteSpace=wrap;html=1;" vertex="1" parent="1">
          <mxGeometry x="-30" y="840" width="100" height="50" as="geometry" />
        </mxCell>
        <mxCell id="T0C-1N6B9OsZeGpATFII-28" value="가격" style="ellipse;whiteSpace=wrap;html=1;" vertex="1" parent="1">
          <mxGeometry x="-370" y="840" width="100" height="50" as="geometry" />
        </mxCell>
        <mxCell id="T0C-1N6B9OsZeGpATFII-29" value="주소" style="ellipse;whiteSpace=wrap;html=1;" vertex="1" parent="1">
          <mxGeometry x="70" y="410" width="100" height="50" as="geometry" />
        </mxCell>
        <mxCell id="T0C-1N6B9OsZeGpATFII-30" value="" style="endArrow=none;html=1;entryX=0.5;entryY=1;entryDx=0;entryDy=0;exitX=0.5;exitY=0;exitDx=0;exitDy=0;" edge="1" parent="1" source="T0C-1N6B9OsZeGpATFII-28" target="T0C-1N6B9OsZeGpATFII-1">
          <mxGeometry width="50" height="50" relative="1" as="geometry">
            <mxPoint x="-190" y="820" as="sourcePoint" />
            <mxPoint x="-140" y="460" as="targetPoint" />
          </mxGeometry>
        </mxCell>
        <mxCell id="T0C-1N6B9OsZeGpATFII-31" value="" style="endArrow=none;html=1;entryX=0.5;entryY=1;entryDx=0;entryDy=0;exitX=0.5;exitY=0;exitDx=0;exitDy=0;" edge="1" parent="1" source="T0C-1N6B9OsZeGpATFII-27">
          <mxGeometry width="50" height="50" relative="1" as="geometry">
            <mxPoint x="201.99999999999977" y="849.9999999999998" as="sourcePoint" />
            <mxPoint x="-158" y="780" as="targetPoint" />
          </mxGeometry>
        </mxCell>
        <mxCell id="T0C-1N6B9OsZeGpATFII-32" value="" style="endArrow=none;html=1;exitX=0.5;exitY=0;exitDx=0;exitDy=0;" edge="1" parent="1" source="T0C-1N6B9OsZeGpATFII-24">
          <mxGeometry width="50" height="50" relative="1" as="geometry">
            <mxPoint x="-190" y="510" as="sourcePoint" />
            <mxPoint x="-160" y="780" as="targetPoint" />
          </mxGeometry>
        </mxCell>
        <mxCell id="T0C-1N6B9OsZeGpATFII-33" value="" style="endArrow=none;html=1;entryX=0.5;entryY=1;entryDx=0;entryDy=0;exitX=0.5;exitY=0;exitDx=0;exitDy=0;" edge="1" parent="1" source="T0C-1N6B9OsZeGpATFII-26" target="T0C-1N6B9OsZeGpATFII-1">
          <mxGeometry width="50" height="50" relative="1" as="geometry">
            <mxPoint x="-190" y="510" as="sourcePoint" />
            <mxPoint x="-140" y="460" as="targetPoint" />
          </mxGeometry>
        </mxCell>
        <mxCell id="T0C-1N6B9OsZeGpATFII-34" value="" style="endArrow=none;html=1;entryX=0.5;entryY=1;entryDx=0;entryDy=0;exitX=0.5;exitY=0;exitDx=0;exitDy=0;" edge="1" parent="1" source="T0C-1N6B9OsZeGpATFII-5" target="T0C-1N6B9OsZeGpATFII-17">
          <mxGeometry width="50" height="50" relative="1" as="geometry">
            <mxPoint x="-20" y="550" as="sourcePoint" />
            <mxPoint x="30" y="500" as="targetPoint" />
          </mxGeometry>
        </mxCell>
        <mxCell id="T0C-1N6B9OsZeGpATFII-35" value="" style="endArrow=none;html=1;entryX=0.5;entryY=1;entryDx=0;entryDy=0;exitX=0.5;exitY=0;exitDx=0;exitDy=0;" edge="1" parent="1" source="T0C-1N6B9OsZeGpATFII-36" target="T0C-1N6B9OsZeGpATFII-5">
          <mxGeometry width="50" height="50" relative="1" as="geometry">
            <mxPoint x="73" y="680" as="sourcePoint" />
            <mxPoint x="123" y="630" as="targetPoint" />
          </mxGeometry>
        </mxCell>
        <mxCell id="T0C-1N6B9OsZeGpATFII-36" value="별점" style="ellipse;whiteSpace=wrap;html=1;" vertex="1" parent="1">
          <mxGeometry x="130" y="840" width="100" height="50" as="geometry" />
        </mxCell>
        <mxCell id="T0C-1N6B9OsZeGpATFII-37" value="" style="endArrow=none;html=1;entryX=0.5;entryY=0;entryDx=0;entryDy=0;" edge="1" parent="1" target="T0C-1N6B9OsZeGpATFII-25">
          <mxGeometry width="50" height="50" relative="1" as="geometry">
            <mxPoint x="180" y="780" as="sourcePoint" />
            <mxPoint x="220" y="580" as="targetPoint" />
          </mxGeometry>
        </mxCell>
        <mxCell id="T0C-1N6B9OsZeGpATFII-38" value="" style="ellipse;whiteSpace=wrap;html=1;" vertex="1" parent="1">
          <mxGeometry x="680" y="635" width="100" height="50" as="geometry" />
        </mxCell>
        <mxCell id="T0C-1N6B9OsZeGpATFII-39" value="관리" style="ellipse;whiteSpace=wrap;html=1;" vertex="1" parent="1">
          <mxGeometry x="304" y="630" width="100" height="50" as="geometry" />
        </mxCell>
        <mxCell id="T0C-1N6B9OsZeGpATFII-40" value="" style="endArrow=none;html=1;entryX=0.5;entryY=1;entryDx=0;entryDy=0;exitX=0.5;exitY=0;exitDx=0;exitDy=0;" edge="1" parent="1" source="T0C-1N6B9OsZeGpATFII-39" target="T0C-1N6B9OsZeGpATFII-9">
          <mxGeometry width="50" height="50" relative="1" as="geometry">
            <mxPoint x="354" y="620" as="sourcePoint" />
            <mxPoint x="490" y="590" as="targetPoint" />
          </mxGeometry>
        </mxCell>
        <mxCell id="T0C-1N6B9OsZeGpATFII-41" value="" style="ellipse;whiteSpace=wrap;html=1;" vertex="1" parent="1">
          <mxGeometry x="430" y="630" width="100" height="50" as="geometry" />
        </mxCell>
        <mxCell id="T0C-1N6B9OsZeGpATFII-42" value="" style="endArrow=none;html=1;exitX=0.5;exitY=0;exitDx=0;exitDy=0;entryX=0.5;entryY=1;entryDx=0;entryDy=0;" edge="1" parent="1" source="T0C-1N6B9OsZeGpATFII-41" target="T0C-1N6B9OsZeGpATFII-9">
          <mxGeometry width="50" height="50" relative="1" as="geometry">
            <mxPoint x="440" y="640" as="sourcePoint" />
            <mxPoint x="360" y="560" as="targetPoint" />
          </mxGeometry>
        </mxCell>
        <mxCell id="T0C-1N6B9OsZeGpATFII-43" value="전화번호" style="ellipse;whiteSpace=wrap;html=1;" vertex="1" parent="1">
          <mxGeometry x="-50" y="410" width="100" height="50" as="geometry" />
        </mxCell>
        <mxCell id="T0C-1N6B9OsZeGpATFII-44" value="별명" style="ellipse;whiteSpace=wrap;html=1;" vertex="1" parent="1">
          <mxGeometry x="-170" y="410" width="100" height="50" as="geometry" />
        </mxCell>
        <mxCell id="T0C-1N6B9OsZeGpATFII-45" value="" style="endArrow=none;html=1;entryX=0.5;entryY=0;entryDx=0;entryDy=0;exitX=0.5;exitY=1;exitDx=0;exitDy=0;" edge="1" parent="1" source="T0C-1N6B9OsZeGpATFII-43" target="T0C-1N6B9OsZeGpATFII-6">
          <mxGeometry width="50" height="50" relative="1" as="geometry">
            <mxPoint x="30" y="580" as="sourcePoint" />
            <mxPoint x="80" y="530" as="targetPoint" />
          </mxGeometry>
        </mxCell>
        <mxCell id="T0C-1N6B9OsZeGpATFII-46" value="" style="endArrow=none;html=1;exitX=0.5;exitY=0;exitDx=0;exitDy=0;entryX=0.5;entryY=1;entryDx=0;entryDy=0;" edge="1" parent="1" source="T0C-1N6B9OsZeGpATFII-6" target="T0C-1N6B9OsZeGpATFII-29">
          <mxGeometry width="50" height="50" relative="1" as="geometry">
            <mxPoint x="30" y="580" as="sourcePoint" />
            <mxPoint x="80" y="530" as="targetPoint" />
          </mxGeometry>
        </mxCell>
        <mxCell id="T0C-1N6B9OsZeGpATFII-47" value="" style="endArrow=none;html=1;entryX=0.5;entryY=0;entryDx=0;entryDy=0;exitX=0.5;exitY=1;exitDx=0;exitDy=0;" edge="1" parent="1" source="T0C-1N6B9OsZeGpATFII-44" target="T0C-1N6B9OsZeGpATFII-6">
          <mxGeometry width="50" height="50" relative="1" as="geometry">
            <mxPoint x="30" y="580" as="sourcePoint" />
            <mxPoint x="80" y="530" as="targetPoint" />
          </mxGeometry>
        </mxCell>
      </root>
    </mxGraphModel>
  </diagram>
</mxfile>
